<?xml version="1.0" encoding="UTF-8" standalone="no"?><!DOCTYPE svg PUBLIC "-//W3C//DTD SVG 1.1//EN" "http://www.w3.org/Graphics/SVG/1.1/DTD/svg11.dtd"><svg width="100%" height="100%" viewBox="0 0 851 851" version="1.1" xmlns="http://www.w3.org/2000/svg" xmlns:xlink="http://www.w3.org/1999/xlink" xml:space="preserve" xmlns:serif="http://www.serif.com/" style="fill-rule:evenodd;clip-rule:evenodd;stroke-linejoin:round;stroke-miterlimit:2;"><path d="M0,850.394l0,-850.394l283.465,0l-0,283.465l283.465,-0c156.553,-0 283.464,126.911 283.464,283.464l-0,283.465l-283.465,-0l0,-283.465l-283.464,0l-0,283.465l-283.465,-0Z"/><path d="M758.268,566.929c50.879,0 92.126,41.246 92.126,92.126l-0,191.339l-283.465,-0l0,-283.465l191.339,0Zm-474.803,-566.929l-0,283.465l-191.339,-0c-50.88,-0 -92.126,-41.247 -92.126,-92.126l0,-191.339l283.465,-0Z"/><path d="M850.394,0l-0,170.079c-0,30.072 -11.946,58.912 -33.21,80.176c-21.264,21.264 -50.104,33.21 -80.176,33.21l-170.079,-0l0,-283.465l283.465,0Z"/></svg>